HIERARCHY
ROOT Hips
{
	OFFSET 0.000000 0.000000 0.000000 
	CHANNELS 6 Xposition Yposition Zposition Zrotation Yrotation Xrotation
	JOINT LeftUpLeg
	{
		OFFSET 1.363060 -1.794630 0.839290 
		CHANNELS 3 Zrotation Yrotation Xrotation
		JOINT LeftLeg
		{
			OFFSET 2.448110 -6.726130 0.000000 
			CHANNELS 3 Zrotation Yrotation Xrotation
			JOINT LeftFoot
			{
				OFFSET 2.562200 -7.039590 0.000000 
				CHANNELS 3 Zrotation Yrotation Xrotation
				JOINT LeftToeBase
				{
					OFFSET 0.157640 -0.433110 2.322550 
					CHANNELS 3 Zrotation Yrotation Xrotation
					End Site
					{
						OFFSET 0.000000 0.000000 0.000000 
					}
				}
			}
		}
	}
	JOINT RightUpLeg
	{
		OFFSET -1.305520 -1.794630 0.839290 
		CHANNELS 3 Zrotation Yrotation Xrotation
		JOINT RightLeg
		{
			OFFSET -2.542530 -6.985550 0.000000 
			CHANNELS 3 Zrotation Yrotation Xrotation
			JOINT RightFoot
			{
				OFFSET -2.568260 -7.056230 0.000000 
				CHANNELS 3 Zrotation Yrotation Xrotation
				JOINT RightToeBase
				{
					OFFSET -0.164730 -0.452590 2.363150 
					CHANNELS 3 Zrotation Yrotation Xrotation
					End Site
					{
						OFFSET 0.000000 0.000000 0.000000 
					}
				}
			}
		}
	}
	JOINT Spine
	{
		OFFSET 0.028270 2.035590 -0.193380 
		CHANNELS 3 Zrotation Yrotation Xrotation
		JOINT Spine1
		{
			OFFSET 0.056720 2.048850 -0.042750 
			CHANNELS 3 Zrotation Yrotation Xrotation
			JOINT Neck1
			{
				OFFSET -0.054170 1.746240 0.172020 
				CHANNELS 3 Zrotation Yrotation Xrotation
				JOINT Head
				{
					OFFSET 0.104070 1.761360 -0.123970 
					CHANNELS 3 Zrotation Yrotation Xrotation
					End Site
					{
						OFFSET 0.000000 0.000000 0.000000 
					}
				}
			}
			JOINT LeftArm
			{
				OFFSET 3.362410 1.200890 -0.311210 
				CHANNELS 3 Zrotation Yrotation Xrotation
				JOINT LeftForeArm
				{
					OFFSET 4.983000 -0.000000 -0.000000 
					CHANNELS 3 Zrotation Yrotation Xrotation
					JOINT LeftHand
					{
						OFFSET 3.483560 -0.000000 -0.000000 
						CHANNELS 3 Zrotation Yrotation Xrotation
						JOINT LeftHandIndex1
						{
							OFFSET 0.715260 -0.000000 -0.000000 
							CHANNELS 3 Zrotation Yrotation Xrotation
							End Site
							{
								OFFSET 0.000000 0.000000 0.000000 
							}
						}
					}
				}
			}
			JOINT RightArm
			{
				OFFSET -3.136600 1.374050 -0.404650 
				CHANNELS 3 Zrotation Yrotation Xrotation
				JOINT RightForeArm
				{
					OFFSET -5.241900 -0.000000 -0.000000 
					CHANNELS 3 Zrotation Yrotation Xrotation
					JOINT RightHand
					{
						OFFSET -3.444170 -0.000000 -0.000000 
						CHANNELS 3 Zrotation Yrotation Xrotation
						JOINT RightHandIndex1
						{
							OFFSET -0.622530 -0.000000 -0.000000 
							CHANNELS 3 Zrotation Yrotation Xrotation
							End Site
							{
								OFFSET 0.000000 0.000000 0.000000 
							}
						}
					}
				}
			}
		}
	}
}
MOTION
Frames: 10
Frame Time: 0.041667
-9.231865 17.583610 -2.491585 -5.435445 34.457377 -0.877319 -18.535104 -4.578756 -25.450904 9.206721 17.489430 58.637135 1.055900 -1.503165 -1.729981 0.007700 0.566300 1.556000 8.866654 1.959692 -14.726507 -1.957303 -9.654389 28.432500 4.022764 -15.027364 3.791121 -1.148500 6.804800 -19.138200 1.676303 1.724026 -2.091278 2.996466 1.230669 -4.005108 0.462471 0.474784 14.388982 1.159600 -0.565600 10.166600 -84.266296 3.425377 31.393078 13.674074 -25.239675 -4.433377 -2.011495 -3.407566 7.624087 -7.125000 0.000000 0.000000 77.272631 -8.315252 10.456163 -15.512086 24.226289 -4.675184 2.635875 0.078448 0.157458 7.125000 0.000000 0.000000 
-9.194020 17.623123 -2.281303 -5.595380 36.658924 -0.924062 -18.761285 -4.207314 -26.729404 8.757835 17.332897 57.315352 1.352700 -2.426202 -2.074813 0.013400 0.746300 2.051000 9.233074 1.679543 -13.340326 -1.962844 -9.529458 28.198535 4.537119 -16.421356 2.812851 -1.279600 7.168800 -20.216500 1.660286 1.764341 -2.091110 3.061419 1.271503 -3.975087 0.425591 0.359469 14.292956 1.121500 -0.610500 10.098400 -83.922785 3.918501 31.759303 13.777325 -25.489920 -4.559374 -1.925346 -3.258782 7.810036 -7.125000 0.000000 0.000000 77.155689 -8.753715 11.630368 -15.684865 24.508706 -4.788896 2.635207 0.059964 -0.152047 7.125000 0.000000 0.000000 
-9.147418 17.660759 -2.079361 -5.743752 38.732807 -0.944327 -19.133306 -3.792330 -27.963565 8.259916 17.130644 55.824911 1.483128 -2.744990 -2.388250 0.023100 0.982200 2.699900 9.518964 1.419326 -12.047190 -1.928559 -9.373848 27.887116 4.851951 -17.229651 1.882874 -1.168500 6.861800 -19.306600 1.633202 1.811313 -2.093083 2.977114 1.311462 -3.953023 0.386201 0.297182 14.267627 1.081400 -0.633200 10.096100 -83.677293 4.163151 31.286084 13.701333 -25.450117 -4.572138 -1.822736 -3.126161 8.304977 -7.125000 0.000000 0.000000 76.961144 -9.122413 12.855071 -15.901852 24.840197 -4.910577 2.723381 -0.045187 -0.370816 7.125000 0.000000 0.000000 
-9.090078 17.698603 -1.897228 -6.427222 40.575815 -1.207526 -19.181964 -3.330018 -29.357435 7.754819 16.913640 54.277980 1.515119 -2.681317 -2.748610 0.024300 1.006000 2.765300 10.159871 1.141746 -11.054924 -1.871738 -9.224781 27.618179 4.971974 -17.485620 0.998795 -0.858600 5.909100 -16.521000 1.636755 1.992408 -2.114947 2.697864 1.415632 -4.013235 0.305421 0.191742 14.179696 1.019400 -0.675500 10.043800 -83.602140 4.369676 30.212412 13.583038 -25.263318 -4.436669 -1.988344 -3.307128 9.227695 -7.125000 0.000000 0.000000 76.735189 -9.377868 13.524001 -16.152191 25.224659 -5.081878 2.683542 -0.054330 -0.543662 7.125000 0.000000 0.000000 
-9.031904 17.724876 -1.711863 -7.161983 42.393604 -1.592834 -19.402497 -2.685499 -30.754665 7.229160 16.663748 52.653042 1.396330 -2.081933 -3.174708 0.000100 -0.066400 -0.182600 10.879385 0.609598 -10.079224 -1.836053 -9.091125 27.388344 5.081645 -17.767615 0.479549 -0.736300 5.482000 -15.288700 1.637054 2.172458 -2.126763 2.447707 1.515114 -4.032007 0.365079 0.057184 14.220402 1.043200 -0.734300 10.142300 -83.442325 4.525049 29.392595 13.561912 -25.180577 -4.264257 -2.460450 -3.729590 9.794635 -7.125000 0.000000 0.000000 76.464162 -9.472627 14.247703 -16.411558 25.616622 -5.288936 2.508018 0.080516 -1.425516 7.125000 0.000000 0.000000 
-8.964347 17.734258 -1.529626 -7.650737 44.002141 -1.781754 -20.053829 -1.882705 -32.223616 6.683447 16.382385 50.964977 1.032704 -0.722120 -3.450485 0.123000 -2.261300 -6.228400 11.341755 -0.113469 -9.245057 -1.787741 -8.944496 27.126713 5.030762 -17.579673 0.079608 -0.640300 5.119500 -14.249700 1.649102 2.373975 -2.097037 2.334786 1.623580 -3.809863 0.394733 0.033202 14.264294 1.100300 -0.765600 10.270800 -83.543706 4.301028 28.074666 13.341063 -24.906222 -4.289086 -2.013441 -3.293931 9.687630 -7.125000 0.000000 0.000000 75.996021 -9.570507 15.241418 -16.561818 25.882706 -5.410456 2.462612 0.081984 -1.372328 7.125000 0.000000 0.000000 
-8.890326 17.754380 -1.350412 -8.241860 45.374469 -2.047099 -20.619618 -0.900022 -33.623457 6.123808 16.061604 49.229465 1.069634 -0.816592 -2.966236 0.171600 -2.668200 -7.356300 11.860068 -0.772796 -8.422506 -1.707967 -8.756970 26.740907 4.900288 -17.165687 -0.200044 -0.609500 4.996900 -13.899700 1.623384 2.691119 -2.110289 2.015001 1.789843 -3.855027 0.421529 0.020408 14.222551 1.140700 -0.773000 10.266400 -83.508477 4.343452 27.089167 13.212280 -24.715145 -4.227914 -1.947478 -3.274992 8.708612 -7.125000 0.000000 0.000000 75.895311 -10.084131 15.902244 -16.817918 26.269617 -5.568184 2.527849 -0.030025 -0.621712 7.125000 0.000000 0.000000 
-8.813073 17.765848 -1.167132 -9.042353 46.648361 -2.514249 -21.019700 -0.032595 -34.851503 5.562252 15.706914 47.469372 1.289173 -1.551698 -2.096941 0.094200 -1.979500 -5.448900 12.525538 -1.289257 -7.470752 -1.616871 -8.537002 26.239366 4.876209 -17.078690 -0.388596 -0.737700 5.487000 -15.302900 1.552013 3.083706 -2.202917 1.493946 1.992887 -4.306783 0.595409 -0.053247 14.184781 1.264500 -0.791200 10.214400 -82.958489 5.217074 27.482963 13.533085 -25.213046 -4.366343 -2.011021 -3.584155 6.454414 -7.125000 0.000000 0.000000 75.946481 -10.752856 16.297067 -17.038549 26.606107 -5.727371 2.497685 -0.053204 -0.441712 7.125000 0.000000 0.000000 
-8.737071 17.768767 -0.976867 -10.125407 47.807028 -3.279110 -21.244912 0.573659 -35.870364 5.015777 15.331504 45.687077 1.136390 -0.969616 -1.791600 0.098900 -2.028100 -5.583200 13.427878 -1.424921 -6.181132 -1.484386 -8.254073 25.538077 4.927555 -17.214187 -0.738462 -0.724100 5.437200 -15.160000 1.529814 3.441317 -2.231091 1.139341 2.174529 -4.443878 0.726556 -0.186946 14.189117 1.353700 -0.847400 10.263300 -82.640301 5.615234 26.664600 13.690139 -25.464510 -4.456423 -1.958623 -3.715033 5.195688 -7.125000 0.000000 0.000000 75.853002 -10.940197 16.674465 -17.205846 26.851121 -5.851004 2.457270 -0.048370 -0.568908 7.125000 0.000000 0.000000 
-8.654606 17.777316 -0.794734 -11.046820 48.754388 -3.845277 -21.698652 1.484631 -37.007825 4.458436 14.919628 43.827514 0.907269 -0.139670 -1.550787 0.149200 -2.488700 -6.858300 14.184871 -1.687358 -5.032646 -1.331657 -7.933684 24.709904 4.896322 -17.113446 -0.838962 -0.577000 4.864200 -13.521700 1.534232 3.847461 -2.210177 0.971193 2.385086 -4.337072 0.825319 -0.251268 14.077441 1.417200 -0.867200 10.232500 -82.676874 5.484280 25.197017 13.616960 -25.356519 -4.432766 -1.833143 -3.728352 4.319712 -7.125000 0.000000 0.000000 75.746051 -10.904279 16.483117 -17.476486 27.224476 -6.047104 2.379991 -0.051143 -0.004563 7.125000 0.000000 0.000000 
